<?xml version="1.0" encoding="UTF-8" standalone="no"?>
<svg width="220px" height="249px" viewBox="0 0 220 249" preserveAspectRatio="none" version="1.1" xmlns="http://www.w3.org/2000/svg" xmlns:xlink="http://www.w3.org/1999/xlink" xmlns:sketch="http://www.bohemiancoding.com/sketch/ns">
    <!-- Generator: Sketch 3.0.4 (8053) - http://www.bohemiancoding.com/sketch -->
    <title>HTML5</title>
    <desc>Created with Sketch.</desc>
    <defs></defs>
    <g id="Page-1" stroke="none" stroke-width="1" fill="none" fill-rule="evenodd" sketch:type="MSPage">
        <g id="HTML5" sketch:type="MSArtboardGroup">
            <g id="HTML5_logo_and_wordmark" sketch:type="MSLayerGroup">
                <path d="M20.021338,224.109079 L0,0 L220,0 L199.957434,224.073973 L109.865356,249 L20.021338,224.109079 Z" id="Shape" fill="#E44D26" sketch:type="MSShapeGroup"></path>
                <path d="M110,230 L182.858299,209.822257 L200,18 L110,18 L110,230 Z" id="Shape" fill="#F16529" sketch:type="MSShapeGroup"></path>
                <path d="M110,101.553342 L73.5875751,101.553342 L71.0728212,73.4472626 L110,73.4472626 L110,46 L109.904864,46 L41,46 L41.6586837,53.3636344 L48.4218569,129 L110,129 L110,101.553342 Z" id="Shape" fill="#EBEBEB" sketch:type="MSShapeGroup"></path>
                <path d="M110,173.264198 L109.878111,173.296394 L78.9012762,165.000772 L76.9210471,143 L61.8687331,143 L49,143 L52.8967577,186.31328 L109.871986,202 L110,201.964767 L110,173.264198 Z" id="Shape" fill="#EBEBEB" sketch:type="MSShapeGroup"></path>
                <path d="M110,101 L110,128.484899 L143.903824,128.484899 L140.707946,164.131136 L110,172.405053 L110,201 L166.444124,185.383663 L166.858236,180.740101 L173.328205,108.380552 L174,101 L166.580545,101 L110,101 Z" id="Shape" fill="#FFFFFF" sketch:type="MSShapeGroup"></path>
                <path d="M110,46 L110,62.7692409 L110,72.9340028 L110,73 L176.445118,73 L176.533678,73 L177.086265,66.9312281 L178.341263,53.2436414 L179,46 L110,46 Z" id="Shape" fill="#FFFFFF" sketch:type="MSShapeGroup"></path>
            </g>
        </g>
    </g>
</svg>